# Blender v2.76 (sub 0) OBJ File: ''
# www.blender.org
o tna_eye
v 0.359554 0.005908 -0.046760
v 0.357707 0.004173 -0.046957
v 0.357108 0.005235 -0.049399
v 0.361308 0.007698 -0.046434
v 0.360368 0.008562 -0.049114
v 0.353117 0.002453 -0.048451
v 0.352984 0.003090 -0.049688
v 0.348604 0.011537 -0.055143
v 0.346788 0.011811 -0.055227
v 0.348590 0.017436 -0.055693
v 0.347890 0.002421 -0.049975
v 0.363665 0.012186 -0.045919
v 0.362553 0.009914 -0.046259
v 0.362441 0.012723 -0.048860
v 0.364064 0.014706 -0.045916
v 0.363374 0.022209 -0.046054
v 0.363127 0.017324 -0.048662
v 0.362358 0.021914 -0.048539
v 0.364378 0.017235 -0.045791
v 0.350314 0.023009 -0.054649
v 0.351957 0.022186 -0.054594
v 0.348497 0.023283 -0.054734
v 0.346686 0.022982 -0.054838
v 0.353267 0.020897 -0.054571
v 0.354420 0.017453 -0.054633
v 0.354149 0.015636 -0.054711
v 0.354116 0.019265 -0.054585
v 0.345058 0.022136 -0.054952
v 0.343834 0.013923 -0.055305
v 0.342986 0.015554 -0.055291
v 0.345144 0.012633 -0.055283
v 0.342682 0.017367 -0.055243
v 0.343771 0.020827 -0.055065
v 0.342953 0.019184 -0.055165
v 0.360209 0.026044 -0.048505
v 0.336101 0.017205 -0.052314
v 0.337409 0.017253 -0.053337
v 0.337979 0.013846 -0.053428
v 0.338256 0.010112 -0.052307
v 0.336683 0.013393 -0.052372
v 0.339574 0.010780 -0.053454
v 0.337917 0.020667 -0.053190
v 0.336713 0.020995 -0.052188
v 0.337596 0.022600 -0.052151
v 0.339580 0.008024 -0.051907
v 0.345125 0.006811 -0.053307
v 0.344195 0.004156 -0.051096
v 0.342560 0.005511 -0.051537
v 0.348539 0.006295 -0.053149
v 0.342036 0.008356 -0.053412
v 0.340796 0.006680 -0.051803
v 0.351751 0.027856 -0.052222
v 0.348169 0.031402 -0.049554
v 0.352733 0.031391 -0.048702
v 0.348338 0.028371 -0.052380
v 0.343930 0.030352 -0.050119
v 0.344934 0.027806 -0.052576
v 0.357038 0.029538 -0.047929
v 0.356892 0.029310 -0.048561
v 0.360715 0.026423 -0.047010
v 0.340009 0.026558 -0.051503
v 0.341874 0.026216 -0.052790
v 0.339456 0.023756 -0.053002
v 0.338368 0.024454 -0.051928
v 0.342329 0.028727 -0.050884
v 0.353330 0.013992 -0.054812
v 0.350415 0.011837 -0.055039
v 0.351942 0.006860 -0.052953
v 0.355003 0.008450 -0.052739
v 0.352044 0.012683 -0.054925
v 0.354840 0.026310 -0.052117
v 0.357421 0.010910 -0.052527
v 0.359468 0.017413 -0.052191
v 0.358897 0.020820 -0.052101
v 0.358960 0.013999 -0.052338
v 0.357303 0.023886 -0.052075
v 0.350415 0.011837 0.055038
v 0.352044 0.012683 0.054924
v 0.348590 0.017436 0.055693
v 0.348604 0.011537 0.055143
v 0.346788 0.011811 0.055227
v 0.348539 0.006295 0.053149
v 0.353330 0.013992 0.054812
v 0.354420 0.017453 0.054633
v 0.354116 0.019265 0.054585
v 0.354149 0.015636 0.054711
v 0.345125 0.006811 0.053307
v 0.339574 0.010780 0.053454
v 0.343834 0.013923 0.055305
v 0.337979 0.013846 0.053428
v 0.342986 0.015554 0.055291
v 0.337409 0.017253 0.053337
v 0.342036 0.008356 0.053412
v 0.345144 0.012633 0.055283
v 0.342682 0.017367 0.055243
v 0.342953 0.019184 0.055165
v 0.347890 0.002421 0.049975
v 0.353117 0.002453 0.048451
v 0.352984 0.003090 0.049688
v 0.343771 0.020827 0.055065
v 0.351957 0.022186 0.054593
v 0.350314 0.023009 0.054649
v 0.353267 0.020897 0.054571
v 0.348497 0.023283 0.054734
v 0.345058 0.022136 0.054952
v 0.346686 0.022982 0.054838
v 0.359468 0.017413 0.052191
v 0.358897 0.020820 0.052100
v 0.358960 0.013999 0.052338
v 0.357303 0.023886 0.052075
v 0.351942 0.006860 0.052953
v 0.355003 0.008450 0.052738
v 0.357421 0.010910 0.052527
v 0.339456 0.023756 0.053002
v 0.341874 0.026216 0.052790
v 0.344934 0.027806 0.052576
v 0.337917 0.020667 0.053190
v 0.351751 0.027856 0.052222
v 0.354840 0.026310 0.052116
v 0.348338 0.028371 0.052380
v 0.357707 0.004173 0.046957
v 0.357108 0.005235 0.049399
v 0.344195 0.004156 0.051096
v 0.342560 0.005511 0.051537
v 0.360368 0.008562 0.049113
v 0.362441 0.012723 0.048859
v 0.340796 0.006680 0.051803
v 0.336683 0.013393 0.052371
v 0.338256 0.010112 0.052307
v 0.336101 0.017205 0.052314
v 0.339580 0.008024 0.051906
v 0.362358 0.021914 0.048539
v 0.360209 0.026044 0.048505
v 0.363127 0.017324 0.048662
v 0.356892 0.029310 0.048561
v 0.352733 0.031391 0.048702
v 0.336713 0.020995 0.052188
v 0.363374 0.022209 0.046054
v 0.363665 0.012186 0.045919
v 0.364064 0.014706 0.045916
v 0.364378 0.017235 0.045791
v 0.357038 0.029538 0.047929
v 0.360715 0.026423 0.047010
v 0.361308 0.007698 0.046434
v 0.359554 0.005908 0.046760
v 0.362553 0.009914 0.046259
v 0.340009 0.026558 0.051503
v 0.338368 0.024454 0.051928
v 0.342329 0.028727 0.050884
v 0.337596 0.022600 0.052151
v 0.348169 0.031402 0.049554
v 0.343930 0.030352 0.050119
vt 0.094816 0.509807
vt 0.033473 0.573556
vt 0.071014 0.594226
vt 0.158134 0.449286
vt 0.188684 0.481729
vt 0.972659 0.731930
vt 0.995158 0.736525
vt 0.293880 0.887650
vt 0.303577 0.950317
vt 0.502521 0.888148
vt 0.971526 0.912293
vt 0.316848 0.367969
vt 0.236490 0.406335
vt 0.335835 0.410192
vt 0.405946 0.354205
vt 0.671314 0.377994
vt 0.498538 0.386537
vt 0.660866 0.413076
vt 0.495405 0.343363
vt 0.699580 0.828669
vt 0.670500 0.771953
vt 0.709277 0.891340
vt 0.698645 0.953827
vt 0.624885 0.726743
vt 0.503091 0.686983
vt 0.438835 0.696328
vt 0.567200 0.697468
vt 0.668722 0.010019
vt 0.378273 0.052243
vt 0.435958 0.081523
vt 0.332658 0.007037
vt 0.500066 0.092004
vt 0.622437 0.054411
vt 0.564322 0.082662
vt 0.806930 0.487216
vt 0.494340 0.319087
vt 0.496021 0.273963
vt 0.375537 0.254269
vt 0.243513 0.244718
vt 0.359524 0.299006
vt 0.267125 0.199240
vt 0.616784 0.256408
vt 0.628370 0.297977
vt 0.685113 0.267488
vt 0.169641 0.199038
vt 0.126745 0.007688
vt 0.032874 0.039804
vt 0.080773 0.096199
vt 0.108520 0.889904
vt 0.181396 0.114273
vt 0.122134 0.157089
vt 0.870985 0.779057
vt 0.996407 0.902664
vt 0.996003 0.745179
vt 0.889212 0.896835
vt 0.959253 0.048944
vt 0.869228 0.014276
vt 0.930475 0.596653
vt 0.922431 0.601687
vt 0.820316 0.469743
vt 0.825111 0.184242
vt 0.812990 0.119884
vt 0.726006 0.203316
vt 0.750705 0.240859
vt 0.901803 0.104192
vt 0.380720 0.724575
vt 0.304513 0.825160
vt 0.128502 0.772468
vt 0.184739 0.666860
vt 0.334435 0.768970
vt 0.816334 0.672466
vt 0.271726 0.583428
vt 0.501708 0.512776
vt 0.622192 0.532475
vt 0.380946 0.530333
vt 0.730605 0.587501
vn 0.662900 -0.587000 -0.464700
vn 0.554700 -0.704600 -0.442400
vn 0.503100 -0.619700 -0.602400
vn 0.746100 -0.496300 -0.443800
vn 0.680200 -0.442200 -0.584600
vn 0.319300 -0.828500 -0.460100
vn 0.273500 -0.740300 -0.614100
vn 0.052100 -0.238800 -0.969600
vn -0.032200 -0.226100 -0.973600
vn 0.051600 0.035200 -0.998000
vn 0.050400 -0.663400 -0.746500
vn 0.878000 -0.246300 -0.410400
vn 0.802900 -0.387300 -0.453000
vn 0.788100 -0.217400 -0.575800
vn 0.899200 -0.106000 -0.424400
vn 0.875100 0.284300 -0.391600
vn 0.827900 0.027000 -0.560200
vn 0.786700 0.273200 -0.553600
vn 0.913800 0.023500 -0.405500
vn 0.131500 0.293900 -0.946700
vn 0.207800 0.255700 -0.944200
vn 0.047100 0.306600 -0.950700
vn -0.036900 0.292600 -0.955500
vn 0.268600 0.195800 -0.943100
vn 0.322200 0.035900 -0.946000
vn 0.309600 -0.048500 -0.949600
vn 0.308000 0.120100 -0.943800
vn -0.112500 0.253400 -0.960800
vn -0.169400 -0.128000 -0.977200
vn -0.208800 -0.052200 -0.976600
vn -0.108500 -0.187900 -0.976200
vn -0.222900 0.031900 -0.974300
vn -0.172300 0.192600 -0.966000
vn -0.210300 0.116300 -0.970700
vn 0.671500 0.494600 -0.551700
vn -0.616400 0.020600 -0.787100
vn -0.496000 0.025700 -0.867900
vn -0.468200 -0.140900 -0.872300
vn -0.501900 -0.360100 -0.786400
vn -0.582000 -0.182700 -0.792400
vn -0.392100 -0.293300 -0.871900
vn -0.471200 0.192700 -0.860700
vn -0.587200 0.222300 -0.778300
vn -0.552100 0.322000 -0.769000
vn -0.430400 -0.442600 -0.786700
vn -0.118600 -0.485000 -0.866400
vn -0.136400 -0.605400 -0.784100
vn -0.255600 -0.564300 -0.785000
vn 0.048600 -0.512300 -0.857400
vn -0.269700 -0.409400 -0.871500
vn -0.335100 -0.511500 -0.791200
vn 0.205400 0.544300 -0.813300
vn 0.043600 0.682500 -0.729500
vn 0.253500 0.660800 -0.706400
vn 0.038500 0.569400 -0.821100
vn -0.150100 0.655200 -0.740400
vn -0.128000 0.541800 -0.830700
vn 0.554400 0.733900 -0.392500
vn 0.493500 0.669700 -0.554900
vn 0.752500 0.531300 -0.389200
vn -0.411100 0.535000 -0.738100
vn -0.284700 0.473700 -0.833300
vn -0.395900 0.343800 -0.851500
vn -0.490000 0.415000 -0.766600
vn -0.291100 0.611200 -0.736000
vn 0.271600 -0.124800 -0.954300
vn 0.136100 -0.224900 -0.964800
vn 0.214600 -0.481800 -0.849600
vn 0.364400 -0.404300 -0.838900
vn 0.211800 -0.185600 -0.959500
vn 0.356500 0.468700 -0.808200
vn 0.482700 -0.284500 -0.828300
vn 0.582800 0.033600 -0.811900
vn 0.554900 0.200100 -0.807500
vn 0.558000 -0.133400 -0.819000
vn 0.476900 0.350100 -0.806200
vn 0.136100 -0.224900 0.964800
vn 0.211800 -0.185600 0.959500
vn 0.051600 0.035200 0.998000
vn 0.052100 -0.238800 0.969600
vn -0.032200 -0.226100 0.973600
vn 0.048600 -0.512300 0.857400
vn 0.271600 -0.124800 0.954300
vn 0.322200 0.035900 0.946000
vn 0.308000 0.120100 0.943800
vn 0.309600 -0.048500 0.949600
vn -0.118600 -0.485000 0.866400
vn -0.392100 -0.293300 0.871900
vn -0.169400 -0.128000 0.977200
vn -0.468200 -0.140900 0.872300
vn -0.208800 -0.052200 0.976600
vn -0.496000 0.025700 0.867900
vn -0.269700 -0.409400 0.871500
vn -0.108500 -0.187900 0.976200
vn -0.222900 0.031900 0.974300
vn -0.210300 0.116300 0.970700
vn 0.050400 -0.663400 0.746500
vn 0.319300 -0.828500 0.460100
vn 0.273500 -0.740300 0.614100
vn -0.172300 0.192600 0.966000
vn 0.207800 0.255700 0.944200
vn 0.131500 0.293900 0.946700
vn 0.268600 0.195800 0.943100
vn 0.047100 0.306600 0.950700
vn -0.112500 0.253400 0.960800
vn -0.036900 0.292600 0.955500
vn 0.582800 0.033600 0.811900
vn 0.554900 0.200100 0.807500
vn 0.558000 -0.133400 0.819000
vn 0.476900 0.350100 0.806200
vn 0.214600 -0.481800 0.849600
vn 0.364400 -0.404300 0.838900
vn 0.482700 -0.284500 0.828300
vn -0.395900 0.343800 0.851500
vn -0.284700 0.473700 0.833300
vn -0.128000 0.541800 0.830700
vn -0.471200 0.192700 0.860700
vn 0.205400 0.544300 0.813300
vn 0.356500 0.468700 0.808200
vn 0.038500 0.569400 0.821100
vn 0.554700 -0.704600 0.442400
vn 0.503100 -0.619700 0.602400
vn -0.136400 -0.605400 0.784100
vn -0.255600 -0.564300 0.785000
vn 0.680200 -0.442200 0.584600
vn 0.788100 -0.217400 0.575800
vn -0.335100 -0.511500 0.791200
vn -0.582000 -0.182700 0.792300
vn -0.501900 -0.360100 0.786400
vn -0.616400 0.020600 0.787100
vn -0.430400 -0.442600 0.786700
vn 0.786700 0.273200 0.553600
vn 0.671500 0.494600 0.551700
vn 0.827900 0.027000 0.560200
vn 0.493500 0.669700 0.554900
vn 0.253500 0.660800 0.706400
vn -0.587200 0.222300 0.778300
vn 0.875100 0.284300 0.391600
vn 0.878000 -0.246300 0.410400
vn 0.899200 -0.106000 0.424400
vn 0.913800 0.023500 0.405500
vn 0.554400 0.733900 0.392500
vn 0.752500 0.531300 0.389200
vn 0.746100 -0.496300 0.443800
vn 0.662900 -0.587000 0.464700
vn 0.802900 -0.387300 0.453000
vn -0.411100 0.535000 0.738100
vn -0.490000 0.415000 0.766600
vn -0.291100 0.611200 0.736000
vn -0.552100 0.322000 0.769000
vn 0.043600 0.682500 0.729500
vn -0.150100 0.655200 0.740400
s 1
f 1/1/1 2/2/2 3/3/3
f 3/3/3 4/4/4 1/1/1
f 3/3/3 5/5/5 4/4/4
f 6/6/6 7/7/7 3/3/3
f 8/8/8 9/9/9 10/10/10
f 6/6/6 11/11/11 7/7/7
f 2/2/2 6/6/6 3/3/3
f 12/12/12 13/13/13 14/14/14
f 15/15/15 12/12/12 14/14/14
f 16/16/16 17/17/17 18/18/18
f 16/16/16 19/19/19 17/17/17
f 19/19/19 15/15/15 14/14/14
f 13/13/13 4/4/4 14/14/14
f 4/4/4 5/5/5 14/14/14
f 14/14/14 17/17/17 19/19/19
f 20/20/20 21/21/21 10/10/10
f 22/22/22 20/20/20 10/10/10
f 23/23/23 22/22/22 10/10/10
f 21/21/21 24/24/24 10/10/10
f 25/25/25 26/26/26 10/10/10
f 27/27/27 25/25/25 10/10/10
f 24/24/24 27/27/27 10/10/10
f 28/28/28 23/23/23 10/10/10
f 29/29/29 30/30/30 10/10/10
f 31/31/31 29/29/29 10/10/10
f 9/9/9 31/31/31 10/10/10
f 30/30/30 32/32/32 10/10/10
f 33/33/33 28/28/28 10/10/10
f 34/34/34 33/33/33 10/10/10
f 32/32/32 34/34/34 10/10/10
f 18/18/18 35/35/35 16/16/16
f 36/36/36 37/37/37 38/38/38
f 39/39/39 40/40/40 41/41/41
f 40/40/40 38/38/38 41/41/41
f 40/40/40 36/36/36 38/38/38
f 42/42/42 43/43/43 44/44/44
f 36/36/36 43/43/43 37/37/37
f 43/43/43 42/42/42 37/37/37
f 45/45/45 39/39/39 41/41/41
f 46/46/46 47/47/47 48/48/48
f 11/11/11 46/46/46 49/49/49
f 11/11/11 47/47/47 46/46/46
f 50/50/50 46/46/46 48/48/48
f 41/41/41 50/50/50 45/45/45
f 50/50/50 51/51/51 45/45/45
f 48/48/48 51/51/51 50/50/50
f 52/52/52 53/53/53 54/54/54
f 52/52/52 55/55/55 53/53/53
f 56/56/56 53/53/53 57/57/57
f 54/54/54 58/58/58 59/59/59
f 35/35/35 60/60/60 16/16/16
f 59/59/59 58/58/58 35/35/35
f 58/58/58 60/60/60 35/35/35
f 53/53/53 55/55/55 57/57/57
f 61/61/61 62/62/62 63/63/63
f 44/44/44 64/64/64 63/63/63
f 63/63/63 42/42/42 44/44/44
f 63/63/63 64/64/64 61/61/61
f 65/65/65 56/56/56 57/57/57
f 57/57/57 62/62/62 65/65/65
f 62/62/62 61/61/61 65/65/65
f 26/26/26 66/66/66 10/10/10
f 8/8/8 67/67/67 68/68/68
f 68/68/68 67/67/67 69/69/69
f 67/67/67 70/70/70 69/69/69
f 49/49/49 8/8/8 68/68/68
f 71/71/71 59/59/59 35/35/35
f 59/59/59 71/71/71 54/54/54
f 71/71/71 52/52/52 54/54/54
f 69/69/69 70/70/70 72/72/72
f 26/26/26 25/25/25 73/73/73
f 73/73/73 25/25/25 74/74/74
f 25/25/25 27/27/27 74/74/74
f 75/75/75 26/26/26 73/73/73
f 70/70/70 66/66/66 72/72/72
f 72/72/72 66/66/66 75/75/75
f 66/66/66 26/26/26 75/75/75
f 3/3/3 69/69/69 5/5/5
f 69/69/69 72/72/72 5/5/5
f 5/5/5 72/72/72 14/14/14
f 68/68/68 69/69/69 3/3/3
f 11/11/11 49/49/49 7/7/7
f 49/49/49 68/68/68 7/7/7
f 7/7/7 68/68/68 3/3/3
f 72/72/72 75/75/75 14/14/14
f 18/18/18 74/74/74 76/76/76
f 76/76/76 35/35/35 18/18/18
f 35/35/35 76/76/76 71/71/71
f 74/74/74 18/18/18 17/17/17
f 14/14/14 75/75/75 17/17/17
f 75/75/75 73/73/73 17/17/17
f 17/17/17 73/73/73 74/74/74
f 74/74/74 27/27/27 76/76/76
f 38/38/38 30/30/30 29/29/29
f 29/29/29 41/41/41 38/38/38
f 41/41/41 29/29/29 50/50/50
f 30/30/30 38/38/38 37/37/37
f 42/42/42 34/34/34 32/32/32
f 32/32/32 37/37/37 42/42/42
f 37/37/37 32/32/32 30/30/30
f 29/29/29 31/31/31 50/50/50
f 67/67/67 8/8/8 10/10/10
f 70/70/70 67/67/67 10/10/10
f 66/66/66 70/70/70 10/10/10
f 9/9/9 8/8/8 49/49/49
f 50/50/50 31/31/31 46/46/46
f 31/31/31 9/9/9 46/46/46
f 46/46/46 9/9/9 49/49/49
f 20/20/20 52/52/52 71/71/71
f 52/52/52 20/20/20 22/22/22
f 22/22/22 55/55/55 52/52/52
f 71/71/71 21/21/21 20/20/20
f 27/27/27 24/24/24 76/76/76
f 76/76/76 24/24/24 21/21/21
f 21/21/21 71/71/71 76/76/76
f 55/55/55 22/22/22 23/23/23
f 33/33/33 63/63/63 62/62/62
f 63/63/63 33/33/33 34/34/34
f 34/34/34 42/42/42 63/63/63
f 62/62/62 28/28/28 33/33/33
f 23/23/23 57/57/57 55/55/55
f 57/57/57 23/23/23 28/28/28
f 28/28/28 62/62/62 57/57/57
f 77/67/77 78/70/78 79/10/79
f 80/8/80 77/67/77 79/10/79
f 80/8/80 81/9/81 82/49/82
f 78/70/78 83/66/83 79/10/79
f 84/25/84 85/27/85 79/10/79
f 86/26/86 84/25/84 79/10/79
f 83/66/83 86/26/86 79/10/79
f 81/9/81 87/46/87 82/49/82
f 88/41/88 89/29/89 90/38/90
f 91/30/91 90/38/90 89/29/89
f 90/38/90 91/30/91 92/37/92
f 89/29/89 88/41/88 93/50/93
f 81/9/81 94/31/94 87/46/87
f 94/31/94 93/50/93 87/46/87
f 94/31/94 89/29/89 93/50/93
f 91/30/91 89/29/89 79/10/79
f 95/32/95 91/30/91 79/10/79
f 96/34/96 95/32/95 79/10/79
f 89/29/89 94/31/94 79/10/79
f 97/11/97 98/6/98 99/7/99
f 81/9/81 80/8/80 79/10/79
f 94/31/94 81/9/81 79/10/79
f 100/33/100 96/34/96 79/10/79
f 101/21/101 102/20/102 79/10/79
f 103/24/103 101/21/101 79/10/79
f 85/27/85 103/24/103 79/10/79
f 102/20/102 104/22/104 79/10/79
f 105/28/105 100/33/100 79/10/79
f 106/23/106 105/28/105 79/10/79
f 104/22/104 106/23/106 79/10/79
f 95/32/95 92/37/92 91/30/91
f 84/25/84 107/73/107 108/74/108
f 84/25/84 86/26/86 107/73/107
f 86/26/86 109/75/109 107/73/107
f 85/27/85 84/25/84 108/74/108
f 103/24/103 110/76/110 101/21/101
f 103/24/103 85/27/85 110/76/110
f 85/27/85 108/74/108 110/76/110
f 86/26/86 83/66/83 109/75/109
f 77/67/77 111/68/111 112/69/112
f 77/67/77 80/8/80 111/68/111
f 80/8/80 82/49/82 111/68/111
f 78/70/78 77/67/77 112/69/112
f 83/66/83 113/72/113 109/75/109
f 83/66/83 78/70/78 113/72/113
f 78/70/78 112/69/112 113/72/113
f 114/63/114 100/33/100 115/62/115
f 105/28/105 115/62/115 100/33/100
f 115/62/115 105/28/105 116/57/116
f 100/33/100 114/63/114 96/34/96
f 92/37/92 95/32/95 117/42/117
f 96/34/96 117/42/117 95/32/95
f 117/42/117 96/34/96 114/63/114
f 106/23/106 116/57/116 105/28/105
f 118/52/118 102/20/102 119/71/119
f 101/21/101 119/71/119 102/20/102
f 119/71/119 101/21/101 110/76/110
f 102/20/102 118/52/118 104/22/104
f 116/57/116 106/23/106 120/55/120
f 104/22/104 120/55/120 106/23/106
f 120/55/120 104/22/104 118/52/118
f 98/6/98 121/2/121 122/3/122
f 87/46/87 97/11/97 82/49/82
f 123/47/123 87/46/87 124/48/124
f 87/46/87 93/50/93 124/48/124
f 123/47/123 97/11/97 87/46/87
f 113/72/113 112/69/112 125/5/125
f 113/72/113 125/5/125 126/14/126
f 109/75/109 113/72/113 126/14/126
f 127/51/127 124/48/124 93/50/93
f 128/40/128 129/39/129 88/41/88
f 92/37/92 130/36/130 90/38/90
f 130/36/130 128/40/128 90/38/90
f 90/38/90 128/40/128 88/41/88
f 127/51/127 93/50/93 131/45/131
f 93/50/93 88/41/88 131/45/131
f 129/39/129 131/45/131 88/41/88
f 108/74/108 132/18/132 110/76/110
f 133/35/133 110/76/110 132/18/132
f 110/76/110 133/35/133 119/71/119
f 132/18/132 108/74/108 134/17/134
f 109/75/109 126/14/126 134/17/134
f 107/73/107 109/75/109 134/17/134
f 107/73/107 134/17/134 108/74/108
f 135/59/135 119/71/119 133/35/133
f 111/68/111 99/7/99 122/3/122
f 112/69/112 111/68/111 122/3/122
f 112/69/112 122/3/122 125/5/125
f 111/68/111 82/49/82 99/7/99
f 119/71/119 135/59/135 136/54/136
f 118/52/118 119/71/119 136/54/136
f 82/49/82 97/11/97 99/7/99
f 117/42/117 137/43/137 92/37/92
f 134/17/134 138/16/138 132/18/132
f 139/12/139 140/15/140 126/14/126
f 140/15/140 141/19/141 126/14/126
f 141/19/141 138/16/138 134/17/134
f 142/58/142 135/59/135 133/35/133
f 143/60/143 133/35/133 138/16/138
f 133/35/133 132/18/132 138/16/138
f 134/17/134 126/14/126 141/19/141
f 144/4/144 122/3/122 145/1/145
f 121/2/121 145/1/145 122/3/122
f 99/7/99 98/6/98 122/3/122
f 125/5/125 122/3/122 144/4/144
f 125/5/125 144/4/144 126/14/126
f 144/4/144 146/13/146 126/14/126
f 146/13/146 139/12/139 126/14/126
f 115/62/115 147/61/147 114/63/114
f 148/64/148 114/63/114 147/61/147
f 147/61/147 115/62/115 149/65/149
f 148/64/148 150/44/150 114/63/114
f 137/43/137 130/36/130 92/37/92
f 137/43/137 117/42/117 150/44/150
f 117/42/117 114/63/114 150/44/150
f 115/62/115 116/57/116 149/65/149
f 151/53/151 118/52/118 136/54/136
f 142/58/142 136/54/136 135/59/135
f 143/60/143 142/58/142 133/35/133
f 120/55/120 118/52/118 151/53/151
f 152/56/152 149/65/149 116/57/116
f 120/55/120 151/53/151 116/57/116
f 151/53/151 152/56/152 116/57/116
