# Blender v2.72 (sub 0) OBJ File: ''
# www.blender.org
mtllib Star.mtl
o Mesh_Mesh.015
v 0.006336 0.823289 0.623785
v -0.052152 2.634524 0.043406
v 0.369291 0.025777 0.025812
v 0.044417 0.816850 2.526242
v 0.042471 -0.295639 0.982480
v 0.100964 -2.106729 1.563312
v 0.041274 -0.983048 0.028837
v 0.039344 -2.095922 -1.514647
v 0.004399 -0.288962 -0.919241
v -0.055287 0.834335 -2.453997
v -0.017194 0.827414 -0.551544
v -0.338354 0.007445 0.039915
vt 0.499088 0.606525
vt 0.546202 0.840893
vt 0.552942 0.501327
vt 0.341051 0.606656
vt 0.469299 0.458403
vt 0.419934 0.213047
vt 0.548462 0.366867
vt 0.676491 0.218789
vt 0.626023 0.459667
vt 0.748694 0.606401
vt 0.595278 0.606465
vt 0.543519 0.498883
vn -0.920100 -0.146200 -0.363500
vn -0.905300 -0.424500 0.016700
vn -0.928700 0.301400 -0.216000
vn -0.920100 -0.146300 -0.363500
vn -0.919300 0.299700 0.255200
vn -0.928700 0.301300 -0.216100
vn -0.904800 -0.149000 0.399000
vn -0.919300 0.299700 0.255100
vn -0.905300 -0.424500 0.016600
vn -0.904800 -0.148900 0.399000
vn 0.926500 -0.101400 0.362500
vn 0.926000 -0.377000 -0.019900
vn 0.912000 0.347100 0.218600
vn 0.926500 -0.101500 0.362400
vn 0.902500 0.348700 -0.252600
vn 0.912000 0.347100 0.218700
vn 0.911200 -0.098800 -0.399900
vn 0.902500 0.348800 -0.252500
vn 0.926000 -0.377000 -0.019800
vn 0.911200 -0.098700 -0.400000
usemtl Material.001
s off
f 1/1/1 2/2/1 3/3/1
f 1/1/2 3/3/2 4/4/2
f 5/5/3 4/4/3 3/3/3
f 5/5/4 3/3/4 6/6/4
f 7/7/5 6/6/5 3/3/5
f 7/7/6 3/3/6 8/8/6
f 9/9/7 8/8/7 3/3/7
f 9/9/8 3/3/8 10/10/8
f 11/11/9 10/10/9 3/3/9
f 11/11/10 3/3/10 2/2/10
f 11/11/11 2/2/11 12/12/11
f 11/11/12 12/12/12 10/10/12
f 9/9/13 10/10/13 12/12/13
f 9/9/14 12/12/14 8/8/14
f 7/7/15 8/8/15 12/12/15
f 7/7/16 12/12/16 6/6/16
f 5/5/17 6/6/17 12/12/17
f 5/5/18 12/12/18 4/4/18
f 1/1/19 4/4/19 12/12/19
f 1/1/20 12/12/20 2/2/20
